<?xml version="1.0" standalone="no"?>
<!DOCTYPE svg PUBLIC "-//W3C//DTD SVG 20010904//EN"
 "http://www.w3.org/TR/2001/REC-SVG-20010904/DTD/svg10.dtd">
<svg version="1.0" xmlns="http://www.w3.org/2000/svg"
 width="477.000000pt" height="477.000000pt" viewBox="0 0 477.000000 477.000000"
 preserveAspectRatio="xMidYMid meet">
<metadata>
Created by potrace 1.11, written by Peter Selinger 2001-2013
</metadata>
<g transform="translate(0.000000,477.000000) scale(0.100000,-0.100000)"
fill="#000000" stroke="none">
<path d="M2368 4603 c12 -2 32 -2 45 0 12 2 2 4 -23 4 -25 0 -35 -2 -22 -4z"/>
<path d="M2178 4593 c7 -3 16 -2 19 1 4 3 -2 6 -13 5 -11 0 -14 -3 -6 -6z"/>
<path d="M2588 4593 c7 -3 16 -2 19 1 4 3 -2 6 -13 5 -11 0 -14 -3 -6 -6z"/>
<path d="M2150 4527 c-18 -9 -26 -22 -28 -45 -4 -43 12 -62 54 -62 43 0 44 18
2 22 -26 2 -34 8 -36 27 -4 28 22 53 45 44 10 -4 14 -2 11 7 -6 20 -19 21 -48
7z"/>
<path d="M2217 4493 c3 -27 6 -53 8 -59 4 -13 65 -6 65 8 0 6 -11 8 -25 6 -24
-5 -25 -3 -25 43 0 35 -4 49 -14 49 -10 0 -12 -12 -9 -47z"/>
<path d="M2290 4504 c0 -19 5 -44 10 -55 12 -21 50 -25 68 -7 14 14 16 98 2
98 -5 0 -10 -18 -10 -40 0 -28 -5 -43 -16 -47 -21 -8 -34 13 -34 55 0 17 -4
32 -10 32 -5 0 -10 -16 -10 -36z"/>
<path d="M2408 4533 c-3 -4 -6 -29 -7 -55 -2 -47 -2 -48 27 -48 33 0 58 23 46
42 -4 7 -8 24 -8 38 -1 19 -7 26 -28 28 -14 2 -28 0 -30 -5z m42 -23 c0 -5 -7
-10 -15 -10 -8 0 -15 5 -15 10 0 6 7 10 15 10 8 0 15 -4 15 -10z m-2 -47 c-4
-22 -22 -20 -26 1 -2 10 3 16 13 16 10 0 15 -7 13 -17z"/>
<path d="M2043 4486 l6 -39 -27 26 c-32 31 -56 35 -49 10 3 -10 8 -35 12 -55
3 -21 11 -38 17 -38 6 0 8 14 4 38 l-7 37 31 -33 c17 -18 34 -31 39 -28 11 7
-6 97 -20 111 -9 7 -10 0 -6 -29z"/>
<path d="M2690 4510 c0 -5 6 -10 14 -10 11 0 12 -8 5 -37 -11 -50 -11 -63 1
-63 5 0 13 19 16 41 5 29 13 43 25 46 29 8 23 20 -12 27 -42 8 -49 8 -49 -4z"/>
<path d="M2781 4473 c-14 -48 -14 -83 -1 -83 6 0 10 11 10 25 0 26 7 29 34 19
11 -4 14 -13 10 -30 -7 -27 12 -34 20 -6 14 48 18 92 7 92 -6 0 -11 -6 -11
-14 0 -20 -14 -28 -35 -20 -10 4 -15 14 -12 25 3 11 1 21 -3 24 -5 3 -14 -11
-19 -32z"/>
<path d="M1930 4484 c0 -34 23 -105 32 -96 11 11 -10 112 -23 112 -5 0 -9 -7
-9 -16z"/>
<path d="M2550 4480 c0 -5 11 -10 25 -10 14 0 25 5 25 10 0 6 -11 10 -25 10
-14 0 -25 -4 -25 -10z"/>
<path d="M1831 4461 c-18 -32 -13 -58 16 -80 23 -19 29 -20 47 -8 34 23 40 41
25 73 -18 37 -72 47 -88 15z m67 -17 c13 -24 3 -54 -19 -54 -21 0 -43 35 -35
56 7 19 43 18 54 -2z"/>
<path d="M2887 4452 c-3 -16 -9 -41 -12 -55 -6 -21 -2 -26 24 -35 17 -6 33 -7
36 -3 7 12 -5 21 -26 21 -13 0 -16 5 -12 16 3 9 13 14 24 11 22 -6 26 11 4 19
-26 10 -18 32 10 26 15 -2 25 0 25 7 0 6 -6 11 -12 11 -7 0 -22 3 -34 6 -17 5
-22 0 -27 -24z"/>
<path d="M1752 4444 c-26 -18 -28 -50 -6 -82 15 -22 38 -27 68 -16 27 10 18
24 -12 18 -51 -10 -72 50 -24 71 12 5 22 13 22 17 0 13 -24 9 -48 -8z"/>
<path d="M3001 4409 c-7 -23 -15 -47 -18 -55 -3 -8 0 -14 7 -14 6 0 14 9 17
20 7 28 23 25 23 -4 0 -14 4 -27 9 -31 12 -7 25 31 16 45 -3 5 -2 10 3 10 22
0 23 35 2 52 -33 27 -46 22 -59 -23z m49 -4 c0 -8 -4 -15 -9 -15 -13 0 -22 16
-14 24 11 11 23 6 23 -9z"/>
<path d="M1676 4427 c-16 -5 -39 -15 -51 -21 l-22 -12 20 -52 c12 -32 24 -49
29 -44 6 6 3 24 -6 47 -21 48 -20 55 4 55 14 0 22 -11 31 -40 7 -22 18 -40 25
-40 10 0 10 9 -2 42 -13 39 -13 44 1 54 23 17 6 23 -29 11z"/>
<path d="M3086 4373 c-9 -26 -16 -50 -16 -53 0 -11 52 -32 59 -24 3 4 2 8 -4
11 -40 15 -44 50 -4 38 22 -7 26 10 4 19 -26 10 -17 29 10 22 33 -8 33 12 -1
24 -14 6 -27 10 -29 10 -2 0 -10 -21 -19 -47z"/>
<path d="M2160 4379 c-406 -47 -803 -226 -1109 -500 -352 -316 -586 -757 -652
-1229 -17 -122 -17 -408 0 -530 152 -1095 1154 -1865 2243 -1724 999 129 1748
981 1748 1989 0 1008 -749 1860 -1748 1989 -132 17 -357 19 -482 5z m239 -300
c64 -12 117 -23 119 -24 2 -2 -8 -68 -22 -146 -14 -79 -28 -162 -32 -184 -3
-22 -11 -70 -18 -107 l-13 -67 26 -5 c77 -16 214 -37 217 -33 7 7 84 432 84
465 0 11 5 24 10 27 12 8 271 -34 283 -45 9 -8 -3 -89 -49 -335 -33 -181 -36
-169 40 -188 98 -24 265 -92 325 -133 81 -55 177 -158 211 -228 33 -67 60
-177 60 -246 0 -68 -25 -171 -56 -231 -30 -60 -127 -161 -222 -231 -61 -46
-62 -47 -40 -59 49 -26 157 -122 202 -179 131 -167 152 -374 61 -615 -53 -142
-164 -267 -295 -334 -129 -66 -388 -102 -592 -83 -67 6 -126 8 -129 4 -5 -6
-39 -186 -80 -434 -6 -38 -14 -68 -18 -68 -9 0 -296 52 -298 54 -1 1 8 60 21
132 14 71 27 147 30 169 4 22 13 76 21 119 8 44 14 80 13 82 -8 7 -209 36
-221 31 -8 -3 -18 -35 -25 -84 -20 -133 -68 -403 -74 -408 -5 -5 -278 41 -285
49 -2 2 5 53 16 112 11 60 30 163 41 229 11 66 22 129 25 141 5 25 55 14 -613
129 -20 4 -32 11 -29 18 2 7 28 86 58 175 l54 164 35 -5 c19 -3 91 -15 158
-27 68 -12 126 -20 128 -17 5 4 25 112 63 332 40 228 121 690 141 805 71 405
88 505 86 508 -2 1 -90 18 -196 37 -105 18 -194 35 -196 37 -4 5 51 326 57
333 5 4 201 -29 513 -85 88 -16 161 -28 163 -26 4 4 82 437 85 474 3 28 10 28
157 1z"/>
<path d="M2341 3181 c-21 -99 -104 -601 -100 -606 3 -2 72 -17 154 -32 242
-45 390 -35 512 32 172 95 203 315 63 455 -49 49 -204 124 -285 139 -91 16
-234 41 -287 50 l-47 8 -10 -46z"/>
<path d="M2175 2234 c-4 -22 -13 -75 -21 -119 -39 -220 -64 -363 -69 -395 -3
-19 -10 -61 -16 -94 -6 -32 -9 -59 -7 -61 2 -1 101 -19 221 -40 188 -32 233
-37 340 -34 119 4 126 5 199 42 120 59 206 175 216 292 6 75 -12 117 -79 190
-115 122 -200 159 -486 209 -109 19 -219 38 -245 41 l-47 7 -6 -38z"/>
<path d="M1532 4371 c-11 -7 -10 -18 8 -60 13 -28 26 -51 30 -51 4 0 18 9 31
19 20 16 22 22 12 42 -6 13 -14 32 -17 42 -6 18 -41 23 -64 8z m48 -20 c0 -5
-7 -11 -15 -15 -9 -3 -15 0 -15 9 0 8 7 15 15 15 8 0 15 -4 15 -9z m18 -43
c-6 -18 -25 -20 -31 -3 -5 10 0 15 14 15 12 0 19 -5 17 -12z"/>
<path d="M3173 4340 c-36 -41 -46 -75 -15 -48 21 19 42 13 42 -12 0 -35 17
-30 24 8 16 99 2 114 -51 52z m37 -5 c0 -8 -4 -15 -10 -15 -5 0 -7 7 -4 15 4
8 8 15 10 15 2 0 4 -7 4 -15z"/>
<path d="M3253 4300 l-22 -50 31 -16 c16 -8 33 -12 36 -8 4 4 3 8 -3 11 -33
12 -36 19 -20 56 31 74 10 80 -22 7z"/>
<path d="M1410 4315 c0 -3 11 -28 25 -55 l25 -49 29 17 c32 18 32 39 1 22 -17
-9 -22 -5 -40 30 -17 34 -40 54 -40 35z"/>
<path d="M1346 4282 c-2 -4 0 -27 4 -52 5 -25 9 -48 10 -51 0 -3 -11 -11 -25
-17 -31 -14 -47 5 -20 24 24 18 13 29 -13 15 -15 -8 -21 -7 -25 4 -4 8 2 16
14 20 10 4 17 10 14 15 -7 11 -55 -9 -55 -22 0 -22 53 -98 63 -91 43 24 67 47
67 63 0 25 17 35 36 19 8 -6 17 -9 21 -5 7 7 -65 86 -78 86 -4 0 -10 -3 -13
-8z m39 -42 c3 -5 1 -10 -4 -10 -6 0 -11 5 -11 10 0 6 2 10 4 10 3 0 8 -4 11
-10z"/>
<path d="M3356 4244 c-14 -26 -26 -48 -26 -49 0 -2 13 -8 29 -13 31 -11 51 -3
55 20 1 9 8 23 15 32 12 14 11 19 -4 36 -27 30 -41 25 -69 -26z m54 11 c0 -8
-4 -15 -10 -15 -5 0 -10 7 -10 15 0 8 5 15 10 15 6 0 10 -7 10 -15z m-25 -55
c-5 -8 -11 -8 -17 -2 -6 6 -7 16 -3 22 5 8 11 8 17 2 6 -6 7 -16 3 -22z"/>
<path d="M3434 4205 c-14 -25 -24 -49 -20 -52 7 -8 7 -8 40 44 29 47 31 53 16
53 -5 0 -21 -20 -36 -45z"/>
<path d="M3490 4227 c0 -9 5 -17 10 -19 6 -2 -1 -20 -15 -40 -28 -41 -30 -48
-15 -48 6 0 20 16 32 35 16 28 25 34 40 29 30 -9 18 14 -20 37 -26 17 -32 18
-32 6z"/>
<path d="M1192 4183 l-22 -18 28 -42 c30 -48 45 -55 36 -18 -6 25 8 35 21 15
3 -5 13 -10 22 -10 14 0 14 3 -2 20 -10 11 -23 30 -29 42 -15 29 -29 32 -54
11z m33 -33 c-5 -8 -11 -8 -17 -2 -6 6 -7 16 -3 22 5 8 11 8 17 2 6 -6 7 -16
3 -22z"/>
<path d="M3536 4148 c-23 -32 -20 -54 11 -77 32 -26 45 -18 15 9 -25 24 -25
25 -12 51 12 21 50 25 68 7 7 -7 12 -8 12 -2 0 37 -70 46 -94 12z"/>
<path d="M1086 4115 c-19 -14 -18 -16 9 -55 16 -23 32 -43 37 -46 10 -7 59 31
51 40 -3 3 -12 1 -19 -5 -8 -6 -21 -8 -30 -5 -15 6 -15 8 2 28 19 21 19 21 -8
14 -32 -7 -35 0 -11 26 13 14 13 18 2 18 -8 0 -23 -7 -33 -15z"/>
<path d="M3620 4100 c-26 -26 -26 -62 1 -86 19 -17 23 -17 47 -3 38 21 51 63
27 89 -23 25 -49 26 -75 0z m59 -14 c14 -16 5 -43 -18 -55 -37 -19 -57 22 -25
53 19 20 28 20 43 2z"/>
<path d="M1040 4069 c0 -8 5 -20 10 -25 8 -8 6 -15 -5 -24 -13 -11 -18 -10
-33 4 -17 15 -21 14 -60 -20 -23 -19 -42 -40 -42 -46 0 -6 7 -5 16 3 14 12 21
9 48 -24 40 -48 55 -37 17 12 -25 31 -27 39 -16 54 12 16 15 14 45 -23 17 -22
36 -37 42 -34 5 3 2 14 -8 25 -17 18 -16 20 2 34 17 12 21 12 36 -8 19 -25 34
-18 20 10 -17 31 -72 79 -72 62z"/>
<path d="M3702 4020 c-19 -22 -31 -44 -27 -50 6 -10 75 63 75 81 0 17 -15 7
-48 -31z"/>
<path d="M3737 3992 c-42 -43 -38 -67 4 -26 l27 26 -9 -38 c-11 -51 -11 -54 4
-54 16 0 81 79 72 88 -4 4 -18 -6 -32 -23 l-26 -30 7 48 c4 26 3 47 -1 47 -5
0 -26 -17 -46 -38z"/>
<path d="M3845 3895 c-31 -30 -31 -37 -2 -71 16 -18 26 -24 31 -16 4 7 3 12
-3 12 -6 0 -15 9 -21 20 -8 15 -6 24 10 40 24 24 34 25 55 4 23 -23 32 -8 10
16 -24 27 -51 25 -80 -5z"/>
<path d="M870 3865 c-7 -9 -10 -18 -7 -22 8 -7 37 15 37 28 0 14 -16 11 -30
-6z"/>
<path d="M3915 3825 l-40 -34 24 -25 c27 -29 44 -26 17 3 -16 17 -15 20 19 45
32 25 45 47 28 46 -5 -1 -26 -16 -48 -35z"/>
<path d="M741 3789 l-20 -22 42 -38 c42 -38 42 -38 60 -17 25 29 21 42 -17 72
-42 31 -40 31 -65 5z m39 -20 c0 -5 -7 -9 -15 -9 -15 0 -20 12 -9 23 8 8 24
-1 24 -14z m35 -39 c-5 -8 -11 -8 -21 1 -12 10 -12 14 -2 20 16 10 33 -5 23
-21z"/>
<path d="M3967 3772 c-15 -15 -27 -35 -27 -44 0 -24 39 -49 59 -38 33 20 63
50 59 61 -2 7 -16 1 -35 -15 -34 -28 -63 -34 -63 -12 0 8 14 26 30 39 33 28
37 37 17 37 -7 0 -25 -13 -40 -28z"/>
<path d="M723 3707 c20 -18 37 -37 37 -44 0 -22 -25 -20 -58 4 -18 14 -36 22
-39 19 -9 -8 17 -35 50 -52 26 -14 31 -14 48 2 28 25 23 50 -14 78 -49 37 -69
31 -24 -7z"/>
<path d="M4033 3688 c-40 -30 -41 -31 -26 -54 20 -31 41 -30 77 2 25 22 28 30
20 52 -13 36 -23 36 -71 0z m55 -9 c-2 -6 -8 -10 -13 -10 -5 0 -11 4 -13 10
-2 6 4 11 13 11 9 0 15 -5 13 -11z m-38 -43 c-15 -15 -33 4 -19 20 10 12 14
12 20 2 5 -7 4 -17 -1 -22z"/>
<path d="M610 3621 c0 -5 19 -23 43 -41 l42 -31 18 22 c23 29 22 46 -2 25 -19
-17 -21 -17 -54 8 -36 28 -47 32 -47 17z"/>
<path d="M576 3574 c-12 -31 -6 -63 16 -78 32 -23 54 -20 77 11 26 33 19 43
-12 16 -17 -16 -28 -19 -44 -12 -25 9 -31 47 -11 67 9 9 8 12 -4 12 -9 0 -19
-7 -22 -16z"/>
<path d="M4140 3533 c1 -14 27 -43 33 -37 8 9 -11 44 -23 44 -6 0 -10 -3 -10
-7z"/>
<path d="M510 3470 c0 -5 12 -16 27 -23 l27 -15 -42 -7 c-23 -4 -42 -10 -42
-15 0 -8 82 -60 94 -60 16 0 3 22 -19 32 -30 14 -16 28 28 28 39 0 34 14 -17
44 -49 29 -56 31 -56 16z"/>
<path d="M4249 3465 c-1 -5 -2 -17 -3 -25 0 -8 -18 -24 -40 -36 -23 -13 -34
-24 -27 -28 6 -4 27 3 47 15 28 17 38 19 44 9 4 -7 12 -11 17 -9 5 2 -1 22
-14 44 -12 22 -23 36 -24 30z"/>
<path d="M460 3372 c0 -10 73 -52 89 -52 24 0 9 17 -34 38 -51 24 -55 26 -55
14z"/>
<path d="M4247 3354 c-26 -14 -45 -29 -42 -34 4 -7 13 -6 25 0 25 13 27 13 34
-6 4 -11 -1 -22 -14 -31 -39 -27 -10 -31 40 -4 53 28 66 45 25 35 -31 -8 -48
23 -22 38 17 9 23 28 10 28 -5 -1 -30 -12 -56 -26z"/>
<path d="M428 3305 c-15 -34 3 -72 38 -81 35 -9 58 6 62 40 7 60 -76 93 -100
41z m63 -5 c20 -11 26 -45 10 -54 -17 -11 -61 13 -61 32 0 33 17 40 51 22z"/>
<path d="M4305 3259 c-22 -10 -44 -20 -49 -22 -9 -3 20 -67 30 -67 3 0 3 14
-1 30 -8 34 9 41 32 13 13 -16 14 -16 8 10 -4 19 -1 27 9 27 8 0 16 -7 20 -15
3 -8 10 -15 16 -15 6 0 4 12 -5 30 -9 17 -17 30 -18 29 -1 0 -20 -9 -42 -20z"/>
<path d="M386 3224 c-17 -44 10 -84 57 -84 26 0 57 31 57 57 0 21 -14 15 -25
-9 -12 -28 -53 -31 -69 -6 -8 13 -8 23 2 38 10 16 10 20 -2 20 -8 0 -17 -7
-20 -16z"/>
<path d="M4342 3151 c-45 -18 -54 -38 -14 -33 28 4 29 -14 2 -28 -11 -6 -18
-15 -15 -21 4 -5 15 -3 28 6 12 8 29 15 38 15 29 0 41 24 28 54 -14 30 -10 29
-67 7z m53 -20 c7 -12 -12 -24 -25 -16 -11 7 -4 25 10 25 5 0 11 -4 15 -9z"/>
<path d="M354 3143 c-3 -10 -10 -28 -15 -40 -9 -25 0 -30 18 -12 9 9 20 9 44
0 17 -6 38 -11 46 -11 26 0 3 19 -38 31 -31 10 -38 16 -33 31 3 10 0 18 -6 18
-6 0 -13 -8 -16 -17z"/>
<path d="M4373 3063 c-24 -8 -43 -20 -43 -27 0 -28 23 -76 36 -76 21 0 29 -27
14 -45 -24 -29 -1 -27 45 5 25 17 44 37 42 43 -2 7 -26 13 -54 15 -42 2 -52 7
-56 24 -10 38 16 55 28 18 8 -26 25 -17 18 10 -7 25 12 26 26 3 14 -26 23 -10
12 21 -12 30 -11 30 -68 9z m57 -113 c0 -5 -4 -10 -10 -10 -5 0 -10 5 -10 10
0 6 5 10 10 10 6 0 10 -4 10 -10z"/>
<path d="M330 3061 c0 -5 21 -16 47 -25 54 -18 63 -19 63 -7 0 5 -21 16 -47
25 -54 18 -63 19 -63 7z"/>
<path d="M324 3022 c-6 -4 -14 -17 -18 -29 -6 -19 -2 -25 21 -34 64 -24 82
-23 89 5 8 32 -12 59 -37 51 -9 -3 -20 -1 -24 5 -7 12 -16 13 -31 2z m26 -33
c0 -5 -7 -9 -15 -9 -15 0 -20 12 -9 23 8 8 24 -1 24 -14z m50 -15 c0 -16 -16
-19 -25 -4 -8 13 4 32 16 25 5 -4 9 -13 9 -21z"/>
<path d="M4423 2887 c-43 -10 -51 -23 -37 -61 10 -25 25 -19 18 8 -5 21 -1 24
40 35 25 6 46 16 46 21 0 12 -10 11 -67 -3z"/>
<path d="M370 2869 c0 -18 -4 -20 -25 -15 -14 3 -37 9 -51 12 -20 5 -25 3 -22
-6 2 -8 27 -19 56 -25 43 -10 52 -10 57 2 8 23 6 53 -5 53 -5 0 -10 -9 -10
-21z"/>
<path d="M282 2802 c-35 -10 -29 -24 23 -55 47 -27 78 -29 41 -2 -21 16 -15
45 9 45 8 0 15 5 15 10 0 11 -51 12 -88 2z m33 -22 c-3 -5 -12 -10 -18 -10 -7
0 -6 4 3 10 19 12 23 12 15 0z"/>
<path d="M4440 2771 c-25 -4 -36 -12 -38 -27 -5 -33 20 -47 70 -37 39 8 43 11
43 38 0 33 -13 38 -75 26z m60 -26 c0 -8 -4 -15 -9 -15 -13 0 -22 16 -14 24
11 11 23 6 23 -9z m-50 -10 c0 -8 -7 -15 -15 -15 -8 0 -15 7 -15 15 0 8 7 15
15 15 8 0 15 -7 15 -15z"/>
<path d="M247 2718 c-21 -54 -22 -53 49 -63 l52 -7 4 31 c3 21 0 31 -9 31 -7
0 -13 -9 -13 -21 0 -12 -5 -19 -12 -16 -7 2 -13 11 -13 20 0 25 -13 30 -20 8
-9 -29 -23 -26 -27 7 -3 21 -6 23 -11 10z"/>
<path d="M4435 2681 c-19 -4 -26 -9 -18 -14 16 -10 113 3 113 14 0 10 -50 10
-95 0z"/>
<path d="M4510 2646 c0 -14 -29 -26 -67 -26 -13 0 -23 -5 -23 -11 0 -8 17 -10
50 -7 38 4 50 2 50 -8 0 -8 5 -14 10 -14 11 0 13 24 4 58 -7 24 -24 30 -24 8z"/>
<path d="M237 2633 c-4 -3 -7 -18 -7 -33 0 -24 5 -28 38 -34 53 -8 72 -7 72 4
0 6 -9 10 -20 10 -11 0 -20 7 -20 15 0 8 9 15 19 15 21 0 35 13 25 23 -3 3
-17 2 -30 -3 -14 -6 -26 -6 -29 0 -7 11 -38 13 -48 3z m41 -31 c2 -7 -3 -12
-12 -12 -9 0 -16 7 -16 16 0 17 22 14 28 -4z"/>
<path d="M4591 2584 c0 -11 3 -14 6 -6 3 7 2 16 -1 19 -3 4 -6 -2 -5 -13z"/>
<path d="M4447 2552 c-18 -20 -23 -57 -8 -67 5 -3 11 7 13 21 6 54 68 58 76 5
4 -25 22 -28 22 -3 0 53 -68 82 -103 44z"/>
<path d="M172 2540 c0 -14 2 -19 5 -12 2 6 2 18 0 25 -3 6 -5 1 -5 -13z"/>
<path d="M218 2480 c-4 -27 -2 -30 22 -30 15 0 42 -3 59 -6 30 -6 31 -6 31 30
0 20 -4 36 -10 36 -5 0 -10 -9 -10 -20 0 -11 -7 -20 -15 -20 -8 0 -15 9 -15
20 0 11 -4 20 -10 20 -5 0 -10 -9 -10 -20 0 -11 -4 -20 -10 -20 -5 0 -10 9
-10 20 0 31 -17 23 -22 -10z"/>
<path d="M4449 2461 c-20 -16 -22 -23 -14 -47 14 -39 55 -53 89 -30 33 21 34
59 4 80 -30 21 -51 20 -79 -3z m62 -11 c25 -14 24 -36 -1 -50 -41 -22 -82 26
-42 49 21 13 20 13 43 1z"/>
<path d="M220 2420 c0 -5 9 -10 20 -10 15 0 20 -7 20 -25 0 -20 -5 -25 -25
-25 -14 0 -25 -4 -25 -10 0 -6 27 -10 60 -10 33 0 60 4 60 10 0 6 -11 10 -25
10 -20 0 -25 5 -25 26 0 23 3 25 25 20 18 -5 25 -2 25 9 0 12 -12 15 -55 15
-30 0 -55 -4 -55 -10z"/>
<path d="M4603 2385 c0 -27 2 -38 4 -22 2 15 2 37 0 50 -2 12 -4 0 -4 -28z"/>
<path d="M4442 2349 c2 -7 25 -12 53 -12 28 0 51 5 53 12 2 7 -15 11 -53 11
-38 0 -55 -4 -53 -11z"/>
<path d="M220 2326 c-9 -8 1 -86 11 -86 5 0 9 6 9 14 0 10 13 16 42 18 24 2
43 9 46 17 4 11 -5 12 -40 7 -39 -6 -46 -4 -54 14 -5 12 -12 19 -14 16z"/>
<path d="M4440 2310 c0 -11 11 -13 48 -12 31 1 28 -5 -18 -28 -22 -11 -40 -25
-40 -30 0 -6 27 -10 61 -10 37 0 58 4 54 10 -3 6 -21 10 -38 10 l-32 1 38 20
c40 21 46 33 21 43 -25 10 -94 7 -94 -4z"/>
<path d="M172 2230 c0 -14 2 -19 5 -12 2 6 2 18 0 25 -3 6 -5 1 -5 -13z"/>
<path d="M4592 2180 c0 -14 2 -19 5 -12 2 6 2 18 0 25 -3 6 -5 1 -5 -13z"/>
<path d="M276 2171 c-7 -11 3 -41 14 -41 4 0 5 11 2 25 -5 27 -8 30 -16 16z"/>
<path d="M4439 2159 c-19 -19 -27 -69 -10 -69 5 0 11 12 13 28 2 19 9 28 26
30 32 5 55 -16 47 -45 -7 -28 11 -31 20 -3 6 20 -17 69 -33 71 -4 0 -15 2 -25
4 -10 2 -27 -5 -38 -16z"/>
<path d="M4408 2050 c-6 -37 9 -51 17 -17 6 22 10 24 58 19 68 -6 52 13 -19
23 l-52 7 -4 -32z"/>
<path d="M315 2009 c-4 -6 -14 -8 -22 -5 -31 12 -55 -30 -35 -62 12 -18 112 4
112 24 0 40 -39 70 -55 43z m32 -26 c2 -6 -3 -13 -12 -16 -10 -5 -15 0 -15 14
0 21 21 22 27 2z m-47 -13 c0 -5 -7 -10 -15 -10 -8 0 -15 5 -15 10 0 6 7 10
15 10 8 0 15 -4 15 -10z"/>
<path d="M4402 1988 c-32 -32 -5 -67 58 -75 53 -7 52 11 -2 23 -27 6 -43 14
-43 24 0 12 11 14 48 13 49 -3 64 10 25 21 -37 9 -73 7 -86 -6z"/>
<path d="M303 1918 c-50 -16 -39 -28 18 -21 46 5 51 4 47 -13 -2 -12 -16 -21
-41 -27 -49 -12 -49 -32 1 -22 20 4 43 11 50 17 19 16 14 56 -7 68 -23 12 -25
12 -68 -2z"/>
<path d="M4376 1886 c-10 -39 2 -53 47 -59 45 -6 67 5 67 34 0 13 -12 21 -41
29 -22 6 -46 13 -53 16 -8 3 -16 -5 -20 -20z m44 -21 c0 -8 -7 -15 -15 -15 -8
0 -15 7 -15 15 0 8 7 15 15 15 8 0 15 -7 15 -15z m41 -8 c-1 -12 -15 -9 -19 4
-3 6 1 10 8 8 6 -3 11 -8 11 -12z"/>
<path d="M387 1817 c4 -22 0 -25 -43 -36 -30 -8 -43 -16 -37 -22 6 -6 28 -4
60 6 48 14 51 17 44 42 -9 34 -30 43 -24 10z"/>
<path d="M409 1763 c0 -5 -2 -21 -2 -38 -2 -25 -7 -31 -29 -33 -22 -3 -30 2
-39 22 -7 14 -16 23 -20 20 -12 -7 16 -60 36 -68 22 -8 62 10 74 33 7 13 8 28
1 45 -9 25 -19 34 -21 19z"/>
<path d="M4375 1697 c-4 -10 -5 -21 -1 -24 10 -10 18 4 13 24 -4 17 -4 17 -12
0z"/>
<path d="M410 1620 c-24 -9 -46 -23 -48 -30 -3 -8 1 -11 9 -8 8 3 25 9 38 13
l24 7 -22 -30 c-22 -32 -27 -52 -12 -52 5 0 29 9 55 21 54 24 53 45 -1 22
l-37 -15 27 35 c26 35 34 58 20 56 -5 -1 -28 -9 -53 -19z"/>
<path d="M4280 1586 c0 -7 17 -20 38 -28 28 -11 38 -21 38 -37 0 -12 -5 -20
-11 -17 -5 2 -27 11 -47 20 -41 18 -62 6 -22 -12 21 -10 23 -15 14 -32 -9 -16
-15 -18 -30 -10 -24 13 -30 13 -30 0 0 -13 88 -56 97 -47 3 4 -1 13 -11 20
-24 18 -11 49 18 41 20 -5 26 2 44 47 21 49 21 83 1 47 -9 -16 -12 -16 -54 2
-34 15 -45 16 -45 6z"/>
<path d="M445 1516 c-29 -13 -45 -25 -38 -29 13 -8 103 32 103 45 0 12 -9 9
-65 -16z"/>
<path d="M450 1470 c-24 -24 -24 -29 -4 -58 18 -26 65 -30 88 -6 19 18 21 55
4 72 -19 19 -66 14 -88 -8z m76 -15 c8 -21 -14 -45 -41 -45 -29 0 -37 20 -17
43 19 21 51 22 58 2z"/>
<path d="M4200 1421 c-15 -29 -12 -50 4 -28 20 26 39 22 32 -8 -7 -27 8 -35
18 -10 10 26 29 17 22 -10 -8 -32 7 -32 24 0 15 29 17 26 -37 54 -51 26 -50
26 -63 2z"/>
<path d="M565 1378 c6 -30 4 -38 -13 -47 -26 -14 -47 -6 -59 21 -6 13 -12 18
-16 11 -9 -15 30 -63 52 -63 50 0 82 70 45 101 -14 11 -15 9 -9 -23z"/>
<path d="M4150 1331 c0 -5 7 -11 15 -15 25 -9 17 -29 -10 -24 -20 4 -29 -2
-50 -34 -27 -40 -26 -70 1 -34 11 15 17 17 26 8 8 -8 8 -15 -2 -27 -7 -8 -10
-19 -6 -23 4 -4 14 1 21 12 8 10 19 15 25 11 8 -5 8 -11 -1 -21 -6 -8 -9 -18
-5 -22 4 -4 16 4 26 18 l19 25 -47 30 c-41 27 -44 30 -23 33 14 2 31 -5 42
-17 16 -17 24 -19 39 -11 11 6 20 12 20 15 0 2 3 10 6 18 4 11 -9 24 -39 41
-47 28 -57 31 -57 17z m74 -62 c-7 -11 -34 -12 -34 -1 0 14 11 21 26 15 8 -3
11 -9 8 -14z"/>
<path d="M585 1285 c-36 -21 -40 -22 -52 -7 -9 12 -12 13 -13 4 0 -19 19 -54
42 -76 21 -20 35 -16 88 24 41 31 14 35 -31 5 -34 -24 -42 -26 -50 -14 -14 22
-12 25 32 51 23 14 38 28 32 31 -5 3 -27 -5 -48 -18z"/>
<path d="M644 1205 c-3 -8 -14 -17 -25 -20 -22 -7 -25 -33 -6 -60 13 -17 16
-17 61 14 l48 33 -23 24 c-26 27 -47 31 -55 9z m43 -22 c2 -6 -3 -13 -12 -16
-10 -5 -15 0 -15 14 0 21 21 22 27 2z m-37 -34 c0 -5 -7 -9 -15 -9 -15 0 -20
12 -9 23 8 8 24 -1 24 -14z"/>
<path d="M4069 1181 c14 -26 6 -43 -18 -39 -41 7 -22 -16 26 -33 66 -22 75
-11 37 44 -32 45 -65 66 -45 28z m34 -45 c4 -10 1 -13 -8 -9 -8 3 -12 9 -9 14
7 12 11 11 17 -5z"/>
<path d="M744 1108 c14 -22 13 -25 -19 -48 -36 -26 -47 -47 -19 -36 25 10 73
50 73 62 1 11 -31 44 -43 44 -3 0 0 -10 8 -22z"/>
<path d="M3987 1094 c-11 -14 -16 -28 -12 -32 4 -4 13 2 20 12 14 18 16 18 50
-9 51 -38 59 -21 10 21 -22 18 -42 34 -45 34 -3 -1 -13 -12 -23 -26z"/>
<path d="M766 1024 c-14 -26 -26 -50 -26 -55 0 -14 26 -11 65 8 34 16 36 16
57 -5 17 -17 20 -24 10 -34 -9 -9 -15 -9 -24 0 -20 20 -33 14 -14 -7 15 -16
15 -19 2 -24 -9 -4 -18 -2 -21 3 -4 6 -13 10 -22 10 -13 0 -12 -5 7 -25 l23
-25 44 36 c49 40 59 31 13 -13 -35 -33 -37 -44 -10 -68 20 -18 21 -18 60 20
38 37 47 73 10 40 -22 -20 -36 -4 -21 24 9 16 5 25 -21 50 -18 17 -36 31 -40
31 -5 0 -6 5 -2 11 5 8 -1 10 -19 7 -31 -6 -50 11 -37 32 12 19 12 30 1 30 -5
0 -21 -21 -35 -46z m24 -24 c0 -5 -5 -10 -11 -10 -5 0 -7 5 -4 10 3 6 8 10 11
10 2 0 4 -4 4 -10z m114 -139 c3 -5 -1 -14 -8 -20 -16 -13 -32 2 -21 19 8 12
22 13 29 1z"/>
<path d="M3917 1012 c-24 -27 -21 -51 8 -62 14 -5 25 -14 25 -20 0 -17 36 -11
54 9 17 19 16 21 -21 55 -44 41 -45 42 -66 18z m37 -33 c-8 -14 -34 -11 -34 4
0 8 3 17 7 20 9 9 34 -13 27 -24z m27 -32 c-13 -13 -26 -3 -16 12 3 6 11 8 17
5 6 -4 6 -10 -1 -17z"/>
<path d="M3871 958 c1 -17 78 -83 86 -74 7 7 -65 85 -79 86 -5 0 -8 -6 -7 -12z"/>
<path d="M3830 919 c0 -8 13 -28 30 -44 23 -22 27 -31 18 -42 -21 -26 -3 -21
30 9 19 16 31 32 28 36 -4 3 -12 0 -18 -6 -9 -9 -21 -4 -50 25 -24 24 -38 32
-38 22z"/>
<path d="M3755 850 c-22 -25 -12 -39 11 -16 21 21 42 17 61 -11 13 -19 12 -24
-7 -43 -12 -12 -19 -25 -15 -28 7 -7 55 43 55 57 0 5 -9 20 -21 35 -24 31 -59
34 -84 6z"/>
<path d="M1000 842 c0 -5 7 -15 15 -22 22 -19 3 -35 -24 -21 -22 12 -28 2 -10
-16 20 -20 -1 -36 -22 -17 -15 13 -19 14 -19 3 0 -8 11 -21 23 -29 21 -15 24
-14 60 26 l38 42 -31 22 c-16 12 -30 17 -30 12z"/>
<path d="M3690 790 c-11 -11 -20 -27 -20 -35 0 -20 44 -65 64 -65 45 0 63 77
24 104 -30 21 -44 20 -68 -4z m53 -14 c18 -14 23 -51 7 -61 -13 -8 -46 11 -54
31 -6 16 9 44 23 44 3 0 14 -7 24 -14z"/>
<path d="M1033 747 c-19 -25 -28 -44 -21 -46 6 -2 16 3 22 12 10 13 14 13 31
1 15 -11 16 -17 7 -26 -7 -7 -12 -16 -12 -20 0 -18 18 -6 49 33 35 42 35 65 1
34 -16 -14 -22 -15 -34 -5 -14 10 -13 15 1 36 28 43 -9 27 -44 -19z"/>
<path d="M3630 743 c0 -15 68 -88 75 -81 4 4 -8 25 -26 47 -30 38 -49 51 -49
34z"/>
<path d="M3600 720 c0 -7 9 -25 20 -40 l20 -28 -40 19 c-22 11 -45 17 -50 14
-11 -7 45 -95 60 -95 15 0 12 11 -7 32 -23 25 -10 32 26 14 42 -22 49 -4 15
45 -30 44 -44 56 -44 39z"/>
<path d="M1145 682 c-22 -34 -31 -40 -42 -31 -7 7 -17 9 -21 5 -8 -9 47 -56
66 -56 9 0 10 4 1 18 -10 15 -8 25 11 49 12 17 20 37 18 44 -3 8 -16 -3 -33
-29z"/>
<path d="M3440 615 c-18 -21 -6 -29 19 -13 16 9 26 10 39 2 25 -16 27 -51 3
-64 -21 -11 -29 -30 -13 -30 18 0 52 42 52 64 0 47 -71 76 -100 41z"/>
<path d="M1235 600 c-3 -5 3 -14 14 -20 26 -13 35 2 11 18 -11 7 -21 8 -25 2z"/>
<path d="M3377 584 c-15 -8 -25 -19 -22 -25 4 -5 14 -5 26 2 12 6 22 9 23 7 1
-2 13 -21 26 -42 13 -22 26 -34 28 -27 4 12 -38 101 -48 101 -3 -1 -18 -8 -33
-16z"/>
<path d="M1390 545 c-6 -8 -9 -19 -5 -25 3 -5 2 -10 -3 -10 -19 0 -22 -33 -6
-51 26 -29 39 -23 65 27 24 44 24 45 5 60 -25 18 -40 18 -56 -1z m50 -9 c0 -2
-3 -12 -6 -20 -5 -13 -9 -14 -20 -5 -16 13 -9 29 12 29 8 0 14 -2 14 -4z m-26
-61 c-4 -8 -10 -12 -15 -9 -14 8 -10 24 6 24 9 0 12 -6 9 -15z"/>
<path d="M3302 538 c-7 -7 -12 -18 -12 -25 0 -18 32 -83 42 -83 11 0 9 11 -7
40 -20 35 -19 60 3 60 11 0 25 -14 35 -35 9 -19 21 -35 27 -35 14 0 13 5 -10
50 -21 42 -53 53 -78 28z"/>
<path d="M1471 494 c-12 -15 -21 -30 -21 -35 0 -4 -3 -14 -6 -23 -12 -32 16
-15 30 18 16 40 33 53 49 37 8 -8 6 -20 -6 -46 -19 -39 -21 -55 -9 -55 11 0
42 66 42 90 0 18 -27 40 -49 40 -5 0 -19 -12 -30 -26z"/>
<path d="M3228 504 c-30 -16 -38 -51 -13 -60 8 -4 12 -11 8 -17 -3 -5 2 -16
12 -23 16 -12 40 -8 63 11 1 1 -8 25 -20 53 -23 50 -23 50 -50 36z m26 -29 c4
-10 -1 -15 -14 -15 -20 0 -26 11 -13 23 10 11 20 8 27 -8z m16 -43 c0 -13 -12
-22 -22 -16 -10 6 -1 24 13 24 5 0 9 -4 9 -8z"/>
<path d="M1565 480 c-3 -5 4 -11 15 -15 23 -7 25 -21 5 -55 -16 -29 -19 -50
-6 -50 8 0 16 18 48 96 5 14 -54 37 -62 24z"/>
<path d="M1640 451 c0 -5 9 -12 19 -16 25 -8 34 -32 20 -57 -8 -15 -18 -19
-40 -16 -18 3 -28 1 -26 -6 2 -6 18 -12 35 -14 61 -6 83 81 27 106 -31 14 -35
15 -35 3z"/>
<path d="M1761 388 c-16 -44 -23 -88 -13 -88 6 0 13 14 17 31 8 35 15 32 30
-14 5 -18 14 -31 19 -30 10 2 36 76 36 101 0 24 -18 2 -26 -31 l-7 -32 -14 43
c-16 47 -29 53 -42 20z"/>
<path d="M2930 398 c0 -2 7 -24 15 -50 12 -42 12 -48 0 -48 -8 0 -15 -5 -15
-11 0 -10 52 -4 73 8 14 8 7 24 -10 21 -13 -2 -20 7 -27 40 -5 24 -15 42 -22
42 -8 0 -14 -1 -14 -2z"/>
<path d="M3074 385 c-15 -11 -16 -14 -4 -15 21 0 44 16 33 23 -6 4 -19 0 -29
-8z"/>
<path d="M2877 384 c-4 -4 -4 -18 -1 -30 5 -20 2 -24 -16 -24 -13 0 -24 8 -27
20 -6 21 -23 28 -23 9 0 -5 5 -30 11 -55 12 -48 29 -59 29 -19 0 32 35 35 43
4 3 -12 10 -18 15 -15 7 4 5 25 -3 57 -15 56 -18 62 -28 53z"/>
<path d="M1861 336 c-13 -54 -14 -66 -2 -66 8 0 31 74 31 99 0 28 -19 6 -29
-33z"/>
<path d="M1904 345 c-21 -33 -11 -72 22 -87 24 -11 29 -9 50 15 29 34 30 58 6
80 -27 24 -59 21 -78 -8z m69 -14 c5 -20 -17 -61 -33 -61 -18 0 -31 39 -20 60
14 26 46 26 53 1z"/>
<path d="M2730 350 c-15 -10 -8 -14 21 -11 9 1 19 -5 22 -14 5 -10 0 -15 -13
-15 -11 0 -20 -4 -20 -10 0 -5 9 -10 20 -10 11 0 20 -5 20 -11 0 -6 -9 -13
-20 -16 -11 -3 -20 -10 -20 -15 0 -6 10 -8 23 -4 12 3 28 6 35 6 8 0 11 7 9
18 -3 9 -8 34 -12 55 -5 30 -10 37 -28 37 -12 0 -29 -5 -37 -10z"/>
<path d="M2016 341 c5 -5 18 -11 29 -13 25 -4 31 -40 11 -61 -9 -8 -25 -13
-36 -10 -11 3 -20 0 -20 -6 0 -11 20 -15 50 -11 40 4 55 81 21 100 -24 13 -69
14 -55 1z"/>
<path d="M2126 318 c-3 -13 -6 -33 -6 -45 0 -16 -6 -23 -20 -23 -11 0 -20 -4
-20 -10 0 -5 6 -10 14 -10 7 0 28 -3 45 -6 20 -4 31 -3 31 5 0 6 -7 11 -16 11
-13 0 -15 8 -10 50 6 50 -6 70 -18 28z"/>
<path d="M2606 323 c4 -10 8 -30 9 -45 2 -16 3 -32 4 -38 0 -5 17 -10 37 -10
36 0 36 1 30 31 -3 17 -6 42 -6 55 0 13 -4 24 -10 24 -5 0 -10 -11 -10 -25 0
-14 -5 -25 -10 -25 -6 0 -15 11 -20 25 -5 14 -15 25 -21 25 -7 0 -8 -7 -3 -17z
m64 -64 c0 -5 -7 -9 -15 -9 -15 0 -20 12 -9 23 8 8 24 -1 24 -14z"/>
<path d="M2186 299 c-9 -46 -7 -79 4 -79 6 0 11 10 11 23 1 12 3 37 5 55 5 41
-11 42 -20 1z"/>
<path d="M2232 318 c-15 -20 -9 -89 9 -101 29 -18 46 -1 52 50 3 26 3 51 0 55
-7 13 -50 9 -61 -4z m38 -23 c0 -8 -4 -15 -9 -15 -13 0 -22 16 -14 24 11 11
23 6 23 -9z m0 -50 c0 -8 -4 -15 -9 -15 -13 0 -22 16 -14 24 11 11 23 6 23 -9z"/>
<path d="M2492 308 c-6 -23 -31 -23 -48 -1 -23 32 -25 7 -3 -46 12 -28 27 -50
33 -48 6 2 17 25 25 50 13 41 18 47 43 47 18 0 28 -5 28 -15 0 -8 -9 -15 -20
-15 -11 0 -20 -4 -20 -10 0 -5 9 -10 20 -10 11 0 20 -7 20 -15 0 -9 -9 -15
-22 -15 -15 0 -19 -3 -11 -11 6 -6 22 -7 38 -3 24 6 26 10 21 37 -3 16 -6 40
-6 54 0 22 -3 24 -46 22 -36 -2 -48 -7 -52 -21z m-12 -48 c0 -5 -2 -10 -4 -10
-3 0 -8 5 -11 10 -3 6 -1 10 4 10 6 0 11 -4 11 -10z"/>
<path d="M2340 310 c0 -5 11 -10 25 -10 23 0 25 -4 25 -45 0 -25 5 -45 10 -45
6 0 10 25 10 55 l0 55 -35 0 c-19 0 -35 -4 -35 -10z"/>
<path d="M2178 173 c7 -3 16 -2 19 1 4 3 -2 6 -13 5 -11 0 -14 -3 -6 -6z"/>
<path d="M2588 173 c7 -3 16 -2 19 1 4 3 -2 6 -13 5 -11 0 -14 -3 -6 -6z"/>
<path d="M2368 163 c12 -2 30 -2 40 0 9 3 -1 5 -23 4 -22 0 -30 -2 -17 -4z"/>
</g>
</svg>
